/* XPM */
static char *httrack[] = {
/* columns rows colors chars-per-pixel */
"32 32 9 1",
"  c opaque",
". c #191919",
"X c #00007f",
"o c #4c4c4c",
"O c #666667",
"+ c gray50",
"@ c blue",
"# c gray60",
"$ c #b2b2b2",
/* pixels */
"$$+...   .$#########$+X    . $#$",
"$#+       $#########$+  .    $##",
"##@. ..   ##########$@      X###",
"###.    .X##########$+    . .###",
"##+      .$##########@ ..  . $$#",
"##+..  .  $#########$#       $##",
"##+.      ##########$#      X###",
"##+   . .X###########@ . .  .###",
"##@..   . $$########$+       $$#",
"##+.      #$$$#####$#+  . .  $##",
"##+..  .  ##$$$###$$#@ .  . X###",
"#$O.     .X@XoXoX@oXoo      .###",
"##+..    .     ...      .  . $$#",
"##+  . .  . .        ..      $##",
"##@.  .  .         .        X###",
"###.          . .     .  .  .###",
"##+    .      .    .        .$#$",
"##+..     . .  .     ..  .   $##",
"##+.    . X...X. X....   . .X###",
"##+   .   #$#$##$$#$$+.     .###",
"##@.  .   $$####$####@. .  . $$#",
"##+.    . #$#####$##$#       $##",
"##+. .   .##########$+.     X###",
"#$O.  .  X###########@.  .  .###",
"##+..    .$#########$+       $$#",
"##+  .    $##########+  . .  $##",
"##@.  .   ###########@ .  . X###",
"###. .  .X#########$$#      .###",
"##+      .$#########$+X .  . $$#",
"##+..  .  $#########$+       $##",
"##O.      ##########$@      X###",
"##+.   ..X###########+.  .  .###"
};
