/* XPM */
static char *httrack__[] = {
/* columns rows colors chars-per-pixel */
"32 32 7 1",
"  c #040404040404",
". c #0C0C0C0C0C0C",
"X c #161616161616",
"o c #333333333333",
"O c #333333336666",
"+ c #666666669999",
"@ c #99999999CCCC",
/* pixels */
"@@+       @@@@@@@@@@@+       @@@",
"@@+       @@@@@@@@@@@+       @@@",
"@@+       @@@@@@@@@@@+       @@@",
"@@+       @@@@@@@@@@@+       @@@",
"@@+       @@@@@@@@@@@+       @@@",
"@@+       @@@@@@@@@@@+       @@@",
"@@+       @@@@@@@@@@@+       @@@",
"@@+       @@@@@@@@@@@+       @@@",
"@@+       @@@@@@@@@@@+       @@@",
"@@+       @@@@@@@@@@@+       @@@",
"@@+       @@@@@@@@@@@+       @@@",
"@@+       OOOOOOOOOOOo       @@@",
"@@+                          @@@",
"@@+                          @@@",
"@@+                          @@@",
"@@+                          @@@",
"@@+                          @@@",
"@@+                          @@@",
"@@+       XXXXXXXXXXX.       @@@",
"@@+       @@@@@@@@@@@+       @@@",
"@@+       @@@@@@@@@@@+       @@@",
"@@+       @@@@@@@@@@@+       @@@",
"@@+       @@@@@@@@@@@+       @@@",
"@@+       @@@@@@@@@@@+       @@@",
"@@+       @@@@@@@@@@@+       @@@",
"@@+       @@@@@@@@@@@+       @@@",
"@@+       @@@@@@@@@@@+       @@@",
"@@+       @@@@@@@@@@@+       @@@",
"@@+       @@@@@@@@@@@+       @@@",
"@@+       @@@@@@@@@@@+       @@@",
"@@+       @@@@@@@@@@@+       @@@",
"@@+       @@@@@@@@@@@+       @@@"
};
