<svg xmlns="http://www.w3.org/2000/svg" width="501" height="456" viewBox="0 0 501 456">
<title>HTTrack rings</title>
<!-- Transparent, unlike the GIF this replaces: the panel's own #ccd shows through. -->
<g fill="#b9b9d0" fill-rule="evenodd">
<path d="M614.59 346.3A323.36 197.55 21.16 1 0 11.46 112.89A323.36 197.55 21.16 1 0 614.59 346.3 ZM590.57 315.66A262.58 160.99 22.18 1 0 104.26 117.43A262.58 160.99 22.18 1 0 590.57 315.66 Z"/>
<path d="M578.08 292.16A185.6 113.57 21.23 1 0 232.08 157.73A185.6 113.57 21.23 1 0 578.08 292.16 ZM564.4 274.56A150.77 92.55 22.26 1 0 285.34 160.32A150.77 92.55 22.26 1 0 564.4 274.56 Z"/>
</g>
</svg>
