/* XPM */
static char *pixmap[] = {
/* width height ncols cpp */
"48 48 34 2",
  /* Colors */
  "00 c #C0C0C0",
  "01 c #040404",
  "02 c #080808",
  "03 c #0C0C0C",
  "04 c #111111",
  "05 c #161616",
  "06 c #1C1C1C",
  "07 c #222222",
  "08 c #292929",
  "09 c #555555",
  "0A c #4D4D4D",
  "0B c #424242",
  "0C c #393939",
  "0D c #333333",
  "0E c #333366",
  "0F c #666666",
  "10 c #999999",
  "11 c #666699",
  "12 c #9999CC",
  "13 c #CCCCCC",
  "14 c #6666CC",
  "15 c #5F5F5F",
  "16 c #777777",
  "17 c #868686",
  "18 c #969696",
  "19 c #B2B2B2",
  "1A c #D7D7D7",
  "1B c #DDDDDD",
  "1C c #E3E3E3",
  "1D c #EAEAEA",
  "1E c #F1F1F1",
  "1F c #A0A0A4",
  "20 c #808080",
  ".. s None c None",
  "121212121212121212121212121212121212121212121212121212121212121212121212121212121214111114121212",
  "150E111212110E0914090E0E0E0E0E11090E0E0E0E0E11121212121212121212121212121212121212140D0D14121212",
  "080111121211010614040101010101090601010101010B12121212121212121212121212121212121214040414121212",
  "080111121211010614040101010101090601010101010B12121212121212121212121212121212121214040414121212",
  "080111121211010614040101010101090601010101010B12121212121212121212121212121212121214040414121212",
  "080111121211010614040101010101090601010101010B12121212121212121212121212121212121214040414121212",
  "080111121211010614070501010405150805020104050E12121212121212121212121212121212121214040414121212",
  "0801111212110106121212060111121212120C0115121212121212121212121212121212121212121214040414121212",
  "0801111212110106121212060111121212120C0115121212121212121212121212121212121212121214040414121212",
  "0801111212110106121212060111121212120C0115121214141414141214111414141412121411141414040414141414",
  "0801111212110106121212060111121212120C011512121109110E141209010911091112121501051114040414110909",
  "0801080E0E0D0106121212060111121212120C011512120E010E0114140401050D011112110401010D140404140E0108",
  "0801010101010106121212060111121212120C011512120E01060114110101010301111209010101081404041407010E",
  "0801010101010106121212060111121212120C011512120E010101140C01010101011112070101010814040411010111",
  "0801010101010106121212060111121212120C011512120E0101011406010101010111140201060D0814040415010514",
  "0801010101010106121212060111121212120C011512120E0101021104010E0E0101111101011111091404040C010D12",
  "0801030404040106121212060111121212120C011512120E010514110102141404011111010512121214040303011112",
  "08010E1111090106121212060111121212120C011512120E010E12110105141208011111010812121214040101011112",
  "0801111212110106121212060111121212120C011512120E01091211010812120D011111010D12121214040101011412",
  "0801111212110106121212060111121212120C011512120E01091211010812120D011111010D12121214040405011112",
  "0801111212110106121212060111121212120C011512120E01091211010612120801111101061212121404040C010E12",
  "0801111212110106121212060111121212120C011512120E010912110104141404011111010111121414040409010712",
  "0801111212110106121212060111121212120C011512120E01091214040115150101111101010D090C14040411010414",
  "0801111212110106121212060111121212120C011512120E010912140701010101011112040101010814040414050111",
  "0801111212110106121212060111121212120C011512120E010912120C010101010111120D01010108140404140D0109",
  "0801111212110106121212060111121212120C011512120E0109121211010101070111121501010108140404140E0108",
  "0801111212110106121212060111121212120C011512120E01091212140501080D011112140601010D14040414110104",
  "0401080E0E0D01030E0E0E04010D0E0E0E0E0501080E0E0601080E0E0E0601070501080E0E060101070E02010C0C0101",
  "010101010101010101010101010101010101010101010101010101010101010101010101010101010101010101010101",
  "010101010101010101010101010101010101010101010101010101010101010101010101010101010101010101010101",
  "010101010101010101010101010101010101010101010101010101010101010101010101010101010101010101010101",
  "010101010101010101010101010101010101010101010101010101010101010101010101010101010101010101010101",
  "0B07010705010B0B101008180A01061C20060A1710170F10200101010A1E1001081B000501171603150618100C172003",
  "151501090D011715....0B1B1B050F1A1A0C201B..1B19..0001010113131B01101A1D0F031B1C0A100D1E..0F131C09",
  "0D2001200901100B100A0719190D1F0C0F0D200C130C1F090D01010D00080A05130D0F0003190F17100D190A06191510",
  "0510011F2001100B16010510160C1F05010D200119011005010101160901010B1701031A031F051F100D18010119051F",
  "011901191005170B100907101706180F010D200119011F0F0B0101180701010F0901011F081F0510100D190907190510",
  "01190510190D160B1E1D0B1A00010A1C0B0D20011901191D1901011F030101170D0101170C191620100D1D1D15190F17",
  "01170A201F0F0A0B13190D1D1D0C0110000D200119011F192001011F03010117080101200C1C1B07100D1A190B1A1C0D",
  "010F10091710070B160105100F170103130B2001190110050101011F050101170C0101170D000B01100D180101000001",
  "010C1C080F1A030B16010510081801011015200119011005010101180D01010F15010119061F0101100D180101190003",
  "01051E050C1A010B16010510081710031815200119011006010101162001010B19010300031F0101100D100101191008",
  "01011901061F010B19200819170F190F000B200119011F170F0101081C0A0F031B0F2018031F0101100D00200D19150F",
  "01011601010F010B....0B1D1A060F1E000D2001190119..00010101001D1B01181E1E0C031F0101100D1E..0F190810",
  "01010701010701060F0F05150801051F0B0508010B010B0F0B0101010D190F0106192001010C01010C05150F070C010C",
  "010101010101010101010101010101010101010101010101010101010101010101010101010101010101010101010101",
  "010101010101010101010101010101010101010101010101010101010101010101010101010101010101010101010101",
  "010101010101010101010101010101010101010101010101010101010101010101010101010101010101010101010101",
};
